<svg width="35" height="36" viewBox="0 0 35 36" fill="none" xmlns="http://www.w3.org/2000/svg">
<g clip-path="url(#clip0_112_8112)">
<path fill-rule="evenodd" clip-rule="evenodd" d="M17.5 0.5C7.84659 0.5 0 8.34091 0 18C0 27.6591 7.84659 35.5 17.5 35.5C27.1534 35.5 35 27.6534 35 18C35 8.34659 27.1591 0.5 17.5 0.5ZM17.5 2.09091C20.6465 2.09091 23.7224 3.02396 26.3386 4.77207C28.9549 6.52019 30.994 9.00485 32.1981 11.9119C33.4022 14.8189 33.7173 18.0176 33.1034 21.1037C32.4895 24.1898 30.9743 27.0245 28.7494 29.2494C26.5245 31.4743 23.6898 32.9895 20.6037 33.6034C17.5176 34.2173 14.3189 33.9022 11.4119 32.6981C8.50485 31.494 6.02019 29.4549 4.27207 26.8386C2.52396 24.2224 1.59091 21.1465 1.59091 18C1.58904 15.9103 1.99927 13.8407 2.79811 11.9096C3.59696 9.97862 4.76874 8.22408 6.24641 6.74641C7.72407 5.26874 9.47862 4.09696 11.4096 3.29811C13.3407 2.49927 15.4103 2.08904 17.5 2.09091Z" fill="#5D5FEF"/>
<path fill-rule="evenodd" clip-rule="evenodd" d="M11.4402 11.2351C11.2884 11.2495 11.1439 11.3072 11.024 11.4013C10.904 11.4955 10.8137 11.6222 10.7637 11.7662C10.7137 11.9103 10.7062 12.0657 10.742 12.2139C10.7778 12.3622 10.8555 12.497 10.9658 12.6023L16.3635 18.0093L10.9658 23.4027C10.8158 23.5534 10.7318 23.7575 10.7322 23.9702C10.7327 24.1828 10.8176 24.3866 10.9683 24.5366C11.119 24.6866 11.3231 24.7707 11.5357 24.7702C11.7484 24.7697 11.9521 24.6848 12.1022 24.5341L17.5084 19.1279L22.8976 24.5341C23.0477 24.6848 23.2514 24.7697 23.464 24.7702C23.6767 24.7707 23.8808 24.6866 24.0315 24.5366C24.1822 24.3866 24.2671 24.1828 24.2676 23.9702C24.268 23.7575 24.184 23.5534 24.034 23.4027L18.627 18.0093L24.034 12.6023C24.1082 12.5277 24.167 12.4392 24.2071 12.3418C24.2471 12.2445 24.2676 12.1402 24.2673 12.0349C24.2671 11.9297 24.2461 11.8255 24.2055 11.7284C24.165 11.6312 24.1058 11.543 24.0311 11.4688C23.9565 11.3945 23.868 11.3357 23.7707 11.2957C23.6733 11.2556 23.5691 11.2352 23.4638 11.2354C23.3585 11.2357 23.2544 11.2567 23.1572 11.2972C23.0601 11.3377 22.9719 11.397 22.8976 11.4716L17.5056 16.8637L12.1022 11.4716C12.0278 11.3965 11.9393 11.337 11.8418 11.2964C11.7443 11.2558 11.6396 11.2349 11.534 11.2351C11.5046 11.2351 11.4755 11.2351 11.4466 11.2351H11.4402Z" fill="#5D5FEF"/>
</g>
<defs>
<clipPath id="clip0_112_8112">
<rect width="35" height="35" fill="white" transform="translate(0 0.5)"/>
</clipPath>
</defs>
</svg>
