<svg width="17" height="22" viewBox="0 0 17 22" fill="none" xmlns="http://www.w3.org/2000/svg">
<path d="M2.15314 14.1845C2.43984 14.5423 5.70332 18.4464 7.38849 20.4624L7.60363 20.7198C7.60374 20.7199 7.60386 20.72 7.60397 20.7202C7.71394 20.8534 7.85124 20.9609 8.00646 21.0352C8.16184 21.1095 8.33139 21.1487 8.50335 21.15C8.6753 21.1512 8.84539 21.1145 9.00182 21.0424C9.15823 20.9703 9.29716 20.8646 9.40907 20.7328L9.29478 20.6358L9.41009 20.7316L9.41027 20.7314L9.41097 20.7305L9.41376 20.7272L9.42479 20.7139L9.46783 20.6622L9.63146 20.4655L10.2177 19.7607C10.7042 19.1759 11.3559 18.3922 12.0168 17.5971C13.3378 16.0078 14.698 14.3699 14.8468 14.1846M2.15314 14.1845L16.65 9.04562C16.6514 10.9184 16.0144 12.7343 14.8468 14.1846M2.15314 14.1845C0.985605 12.7342 0.348642 10.9185 0.350002 9.04573L2.15314 14.1845ZM14.8468 14.1846C14.8467 14.1847 14.8467 14.1847 14.8466 14.1848L14.7298 14.0907L14.8468 14.1846ZM15.1192 9.04573L15.1192 9.04616C15.1236 10.5638 14.6067 12.0353 13.6581 13.2071L13.6577 13.2076C13.4419 13.4769 10.3417 17.205 8.51028 19.4058C4.28366 14.3509 3.45468 13.3498 3.34099 13.2077L3.34045 13.2071C2.39183 12.0353 1.87519 10.5638 1.88007 9.04621V9.04573C1.88007 5.38087 4.8496 2.40002 8.4993 2.40002H8.5C12.149 2.40002 15.1192 5.38088 15.1192 9.04573Z" fill="#434343" stroke="#434343" stroke-width="0.3"/>
<path d="M8.50013 12.7964C10.5614 12.7964 12.2313 11.1164 12.2313 9.04572C12.2313 6.97511 10.5615 5.29429 8.50013 5.29429C6.43891 5.29429 4.76895 6.97144 4.76895 9.04572C4.76895 11.12 6.43895 12.7964 8.50013 12.7964ZM8.50013 6.84643C9.71345 6.84643 10.7006 7.83355 10.7006 9.04715C10.7006 10.2608 9.71272 11.2486 8.50013 11.2486C7.28778 11.2486 6.29971 10.2567 6.29971 9.04572C6.29971 7.83498 7.28681 6.84643 8.50013 6.84643Z" fill="#434343" stroke="#434343" stroke-width="0.3"/>
</svg>
