<svg width="149" height="54" viewBox="0 0 149 54" fill="none" xmlns="http://www.w3.org/2000/svg">
<path d="M135.16 37.252C133.408 37.252 131.824 36.952 130.408 36.352C129.016 35.752 127.912 34.888 127.096 33.76C126.28 32.632 125.86 31.3 125.836 29.764H131.236C131.308 30.796 131.668 31.612 132.316 32.212C132.988 32.812 133.9 33.112 135.052 33.112C136.228 33.112 137.152 32.836 137.824 32.284C138.496 31.708 138.832 30.964 138.832 30.052C138.832 29.308 138.604 28.696 138.148 28.216C137.692 27.736 137.116 27.364 136.42 27.1C135.748 26.812 134.812 26.5 133.612 26.164C131.98 25.684 130.648 25.216 129.616 24.76C128.608 24.28 127.732 23.572 126.988 22.636C126.268 21.676 125.908 20.404 125.908 18.82C125.908 17.332 126.28 16.036 127.024 14.932C127.768 13.828 128.812 12.988 130.156 12.412C131.5 11.812 133.036 11.512 134.764 11.512C137.356 11.512 139.456 12.148 141.064 13.42C142.696 14.668 143.596 16.42 143.764 18.676H138.22C138.172 17.812 137.8 17.104 137.104 16.552C136.432 15.976 135.532 15.688 134.404 15.688C133.42 15.688 132.628 15.94 132.028 16.444C131.452 16.948 131.164 17.68 131.164 18.64C131.164 19.312 131.38 19.876 131.812 20.332C132.268 20.764 132.82 21.124 133.468 21.412C134.14 21.676 135.076 21.988 136.276 22.348C137.908 22.828 139.24 23.308 140.272 23.788C141.304 24.268 142.192 24.988 142.936 25.948C143.68 26.908 144.052 28.168 144.052 29.728C144.052 31.072 143.704 32.32 143.008 33.472C142.312 34.624 141.292 35.548 139.948 36.244C138.604 36.916 137.008 37.252 135.16 37.252Z" fill="#434343"/>
<path d="M117.88 11.872V37H112.84V20.656L106.108 37H102.292L95.524 20.656V37H90.484V11.872H96.208L104.2 30.556L112.192 11.872H117.88Z" fill="#434343"/>
<path d="M68.148 37.252C65.796 37.252 63.636 36.7 61.668 35.596C59.7 34.492 58.14 32.968 56.988 31.024C55.836 29.056 55.26 26.836 55.26 24.364C55.26 21.916 55.836 19.72 56.988 17.776C58.14 15.808 59.7 14.272 61.668 13.168C63.636 12.064 65.796 11.512 68.148 11.512C70.524 11.512 72.684 12.064 74.628 13.168C76.596 14.272 78.144 15.808 79.272 17.776C80.424 19.72 81 21.916 81 24.364C81 26.836 80.424 29.056 79.272 31.024C78.144 32.968 76.596 34.492 74.628 35.596C72.66 36.7 70.5 37.252 68.148 37.252ZM68.148 32.752C69.66 32.752 70.992 32.416 72.144 31.744C73.296 31.048 74.196 30.064 74.844 28.792C75.492 27.52 75.816 26.044 75.816 24.364C75.816 22.684 75.492 21.22 74.844 19.972C74.196 18.7 73.296 17.728 72.144 17.056C70.992 16.384 69.66 16.048 68.148 16.048C66.636 16.048 65.292 16.384 64.116 17.056C62.964 17.728 62.064 18.7 61.416 19.972C60.768 21.22 60.444 22.684 60.444 24.364C60.444 26.044 60.768 27.52 61.416 28.792C62.064 30.064 62.964 31.048 64.116 31.744C65.292 32.416 66.636 32.752 68.148 32.752Z" fill="#434343"/>
<path d="M5.25351 52.042C4.86551 52.042 4.51151 51.952 4.19151 51.772C3.87151 51.588 3.61751 51.334 3.42951 51.01C3.24551 50.682 3.15351 50.314 3.15351 49.906C3.15351 49.498 3.24551 49.132 3.42951 48.808C3.61751 48.48 3.87151 48.226 4.19151 48.046C4.51151 47.862 4.86551 47.77 5.25351 47.77C5.64551 47.77 6.00151 47.862 6.32151 48.046C6.64151 48.226 6.89351 48.478 7.07751 48.802C7.26151 49.126 7.35351 49.494 7.35351 49.906C7.35351 50.318 7.26151 50.686 7.07751 51.01C6.89351 51.334 6.64151 51.588 6.32151 51.772C6.00151 51.952 5.64551 52.042 5.25351 52.042ZM5.25351 51.568C5.54551 51.568 5.80751 51.5 6.03951 51.364C6.27551 51.228 6.45951 51.034 6.59151 50.782C6.72751 50.53 6.79551 50.238 6.79551 49.906C6.79551 49.57 6.72751 49.278 6.59151 49.03C6.45951 48.778 6.27751 48.584 6.04551 48.448C5.81351 48.312 5.54951 48.244 5.25351 48.244C4.95751 48.244 4.69351 48.312 4.46151 48.448C4.22951 48.584 4.04551 48.778 3.90951 49.03C3.77751 49.278 3.71151 49.57 3.71151 49.906C3.71151 50.238 3.77751 50.53 3.90951 50.782C4.04551 51.034 4.22951 51.228 4.46151 51.364C4.69751 51.5 4.96151 51.568 5.25351 51.568ZM12.3583 47.818V48.262H10.5403V49.672H12.0163V50.116H10.5403V52H9.9943V47.818H12.3583ZM17.3017 47.818V48.262H15.4837V49.672H16.9597V50.116H15.4837V52H14.9377V47.818H17.3017ZM20.4272 47.818V52H19.8812V47.818H20.4272ZM23.0737 49.906C23.0737 49.498 23.1657 49.132 23.3497 48.808C23.5337 48.48 23.7837 48.224 24.0997 48.04C24.4197 47.856 24.7737 47.764 25.1617 47.764C25.6177 47.764 26.0157 47.874 26.3557 48.094C26.6957 48.314 26.9437 48.626 27.0997 49.03H26.4457C26.3297 48.778 26.1617 48.584 25.9417 48.448C25.7257 48.312 25.4657 48.244 25.1617 48.244C24.8697 48.244 24.6077 48.312 24.3757 48.448C24.1437 48.584 23.9617 48.778 23.8297 49.03C23.6977 49.278 23.6317 49.57 23.6317 49.906C23.6317 50.238 23.6977 50.53 23.8297 50.782C23.9617 51.03 24.1437 51.222 24.3757 51.358C24.6077 51.494 24.8697 51.562 25.1617 51.562C25.4657 51.562 25.7257 51.496 25.9417 51.364C26.1617 51.228 26.3297 51.034 26.4457 50.782H27.0997C26.9437 51.182 26.6957 51.492 26.3557 51.712C26.0157 51.928 25.6177 52.036 25.1617 52.036C24.7737 52.036 24.4197 51.946 24.0997 51.766C23.7837 51.582 23.5337 51.328 23.3497 51.004C23.1657 50.68 23.0737 50.314 23.0737 49.906ZM30.3785 48.262V49.66H31.9025V50.11H30.3785V51.55H32.0825V52H29.8325V47.812H32.0825V48.262H30.3785ZM42.5903 47.848V52H42.0443V48.904L40.6643 52H40.2803L38.8943 48.898V52H38.3483V47.848H38.9363L40.4723 51.28L42.0083 47.848H42.5903ZM47.9083 51.07H46.0843L45.7483 52H45.1723L46.6843 47.842H47.3143L48.8203 52H48.2443L47.9083 51.07ZM47.7523 50.626L46.9963 48.514L46.2403 50.626H47.7523ZM54.6872 52H54.1412L51.9452 48.67V52H51.3992V47.812H51.9452L54.1412 51.136V47.812H54.6872V52ZM60.01 51.07H58.186L57.85 52H57.274L58.786 47.842H59.416L60.922 52H60.346L60.01 51.07ZM59.854 50.626L59.098 48.514L58.342 50.626H59.854ZM66.6689 49.03C66.5529 48.786 66.3849 48.598 66.1649 48.466C65.9449 48.33 65.6889 48.262 65.3969 48.262C65.1049 48.262 64.8409 48.33 64.6049 48.466C64.3729 48.598 64.1889 48.79 64.0529 49.042C63.9209 49.29 63.8549 49.578 63.8549 49.906C63.8549 50.234 63.9209 50.522 64.0529 50.77C64.1889 51.018 64.3729 51.21 64.6049 51.346C64.8409 51.478 65.1049 51.544 65.3969 51.544C65.8049 51.544 66.1409 51.422 66.4049 51.178C66.6689 50.934 66.8229 50.604 66.8669 50.188H65.1989V49.744H67.4489V50.164C67.4169 50.508 67.3089 50.824 67.1249 51.112C66.9409 51.396 66.6989 51.622 66.3989 51.79C66.0989 51.954 65.7649 52.036 65.3969 52.036C65.0089 52.036 64.6549 51.946 64.3349 51.766C64.0149 51.582 63.7609 51.328 63.5729 51.004C63.3889 50.68 63.2969 50.314 63.2969 49.906C63.2969 49.498 63.3889 49.132 63.5729 48.808C63.7609 48.48 64.0149 48.226 64.3349 48.046C64.6549 47.862 65.0089 47.77 65.3969 47.77C65.8409 47.77 66.2329 47.88 66.5729 48.1C66.9169 48.32 67.1669 48.63 67.3229 49.03H66.6689ZM70.6369 48.262V49.66H72.1609V50.11H70.6369V51.55H72.3409V52H70.0909V47.812H72.3409V48.262H70.6369ZM79.329 47.848V52H78.783V48.904L77.403 52H77.019L75.633 48.898V52H75.087V47.848H75.675L77.211 51.28L78.747 47.848H79.329ZM82.721 48.262V49.66H84.245V50.11H82.721V51.55H84.425V52H82.175V47.812H84.425V48.262H82.721ZM90.4592 52H89.9132L87.7172 48.67V52H87.1712V47.812H87.7172L89.9132 51.136V47.812H90.4592V52ZM95.8839 47.818V48.262H94.7439V52H94.1979V48.262H93.0519V47.818H95.8839ZM103.322 52.042C103.046 52.042 102.798 51.994 102.578 51.898C102.362 51.798 102.192 51.662 102.068 51.49C101.944 51.314 101.88 51.112 101.876 50.884H102.458C102.478 51.08 102.558 51.246 102.698 51.382C102.842 51.514 103.05 51.58 103.322 51.58C103.582 51.58 103.786 51.516 103.934 51.388C104.086 51.256 104.162 51.088 104.162 50.884C104.162 50.724 104.118 50.594 104.03 50.494C103.942 50.394 103.832 50.318 103.7 50.266C103.568 50.214 103.39 50.158 103.166 50.098C102.89 50.026 102.668 49.954 102.5 49.882C102.336 49.81 102.194 49.698 102.074 49.546C101.958 49.39 101.9 49.182 101.9 48.922C101.9 48.694 101.958 48.492 102.074 48.316C102.19 48.14 102.352 48.004 102.56 47.908C102.772 47.812 103.014 47.764 103.286 47.764C103.678 47.764 103.998 47.862 104.246 48.058C104.498 48.254 104.64 48.514 104.672 48.838H104.072C104.052 48.678 103.968 48.538 103.82 48.418C103.672 48.294 103.476 48.232 103.232 48.232C103.004 48.232 102.818 48.292 102.674 48.412C102.53 48.528 102.458 48.692 102.458 48.904C102.458 49.056 102.5 49.18 102.584 49.276C102.672 49.372 102.778 49.446 102.902 49.498C103.03 49.546 103.208 49.602 103.436 49.666C103.712 49.742 103.934 49.818 104.102 49.894C104.27 49.966 104.414 50.08 104.534 50.236C104.654 50.388 104.714 50.596 104.714 50.86C104.714 51.064 104.66 51.256 104.552 51.436C104.444 51.616 104.284 51.762 104.072 51.874C103.86 51.986 103.61 52.042 103.322 52.042ZM109.333 52.042C108.945 52.042 108.591 51.952 108.271 51.772C107.951 51.588 107.697 51.334 107.509 51.01C107.325 50.682 107.233 50.314 107.233 49.906C107.233 49.498 107.325 49.132 107.509 48.808C107.697 48.48 107.951 48.226 108.271 48.046C108.591 47.862 108.945 47.77 109.333 47.77C109.725 47.77 110.081 47.862 110.401 48.046C110.721 48.226 110.973 48.478 111.157 48.802C111.341 49.126 111.433 49.494 111.433 49.906C111.433 50.318 111.341 50.686 111.157 51.01C110.973 51.334 110.721 51.588 110.401 51.772C110.081 51.952 109.725 52.042 109.333 52.042ZM109.333 51.568C109.625 51.568 109.887 51.5 110.119 51.364C110.355 51.228 110.539 51.034 110.671 50.782C110.807 50.53 110.875 50.238 110.875 49.906C110.875 49.57 110.807 49.278 110.671 49.03C110.539 48.778 110.357 48.584 110.125 48.448C109.893 48.312 109.629 48.244 109.333 48.244C109.037 48.244 108.773 48.312 108.541 48.448C108.309 48.584 108.125 48.778 107.989 49.03C107.857 49.278 107.791 49.57 107.791 49.906C107.791 50.238 107.857 50.53 107.989 50.782C108.125 51.034 108.309 51.228 108.541 51.364C108.777 51.5 109.041 51.568 109.333 51.568ZM116.438 47.818V48.262H114.62V49.672H116.096V50.116H114.62V52H114.074V47.818H116.438ZM121.591 47.818V48.262H120.451V52H119.905V48.262H118.759V47.818H121.591ZM129.439 47.818L128.227 52H127.615L126.643 48.634L125.635 52L125.029 52.006L123.859 47.818H124.441L125.353 51.364L126.361 47.818H126.973L127.933 51.352L128.851 47.818H129.439ZM134.429 51.07H132.605L132.269 52H131.693L133.205 47.842H133.835L135.341 52H134.765L134.429 51.07ZM134.273 50.626L133.517 48.514L132.761 50.626H134.273ZM140.122 52L139.126 50.29H138.466V52H137.92V47.818H139.27C139.586 47.818 139.852 47.872 140.068 47.98C140.288 48.088 140.452 48.234 140.56 48.418C140.668 48.602 140.722 48.812 140.722 49.048C140.722 49.336 140.638 49.59 140.47 49.81C140.306 50.03 140.058 50.176 139.726 50.248L140.776 52H140.122ZM138.466 49.852H139.27C139.566 49.852 139.788 49.78 139.936 49.636C140.084 49.488 140.158 49.292 140.158 49.048C140.158 48.8 140.084 48.608 139.936 48.472C139.792 48.336 139.57 48.268 139.27 48.268H138.466V49.852ZM144.036 48.262V49.66H145.56V50.11H144.036V51.55H145.74V52H143.49V47.812H145.74V48.262H144.036Z" fill="#797979"/>
<path d="M5.47726 33.6637L12.263 14.6637C12.4051 14.2657 12.7821 14 13.2047 14H30.581C31.2725 14 31.7553 14.6851 31.5227 15.3363L24.737 34.3363C24.5949 34.7343 24.2179 35 23.7953 35H6.419C5.72747 35 5.24467 34.3149 5.47726 33.6637Z" fill="#5D5FEF"/>
<path d="M15.9773 22.6637L22.763 3.66366C22.9051 3.26567 23.2821 3 23.7047 3H41.081C41.7725 3 42.2553 3.68509 42.0227 4.33633L35.237 23.3363C35.0949 23.7343 34.7179 24 34.2953 24H16.919C16.2275 24 15.7447 23.3149 15.9773 22.6637Z" fill="#66B8DE"/>
<path d="M21.9773 36.6637L28.763 17.6637C28.9051 17.2657 29.2821 17 29.7047 17H47.081C47.7725 17 48.2553 17.6851 48.0227 18.3363L41.237 37.3363C41.0949 37.7343 40.7179 38 40.2953 38H22.919C22.2275 38 21.7447 37.3149 21.9773 36.6637Z" fill="#E3AC58"/>
</svg>
