<svg width="20" height="22" viewBox="0 0 20 22" fill="none" xmlns="http://www.w3.org/2000/svg">
<rect x="1" y="2.47498" width="18" height="18" rx="3.5" stroke="#434343"/>
<path d="M11.0579 11.292H14.2419V12.428H11.0579V15.724H9.90588V12.428H6.72188V11.292H9.90588V7.98H11.0579V11.292Z" fill="#434343"/>
<path d="M11.0579 11.292H10.5579V11.792H11.0579V11.292ZM14.2419 11.292H14.7419V10.792H14.2419V11.292ZM14.2419 12.428V12.928H14.7419V12.428H14.2419ZM11.0579 12.428V11.928H10.5579V12.428H11.0579ZM11.0579 15.724V16.224H11.5579V15.724H11.0579ZM9.90588 15.724H9.40588V16.224H9.90588V15.724ZM9.90588 12.428H10.4059V11.928H9.90588V12.428ZM6.72187 12.428H6.22188V12.928H6.72187V12.428ZM6.72187 11.292V10.792H6.22188V11.292H6.72187ZM9.90588 11.292V11.792H10.4059V11.292H9.90588ZM9.90588 7.98V7.48H9.40588V7.98H9.90588ZM11.0579 7.98H11.5579V7.48H11.0579V7.98ZM11.0579 11.792H14.2419V10.792H11.0579V11.792ZM13.7419 11.292V12.428H14.7419V11.292H13.7419ZM14.2419 11.928H11.0579V12.928H14.2419V11.928ZM10.5579 12.428V15.724H11.5579V12.428H10.5579ZM11.0579 15.224H9.90588V16.224H11.0579V15.224ZM10.4059 15.724V12.428H9.40588V15.724H10.4059ZM9.90588 11.928H6.72187V12.928H9.90588V11.928ZM7.22187 12.428V11.292H6.22188V12.428H7.22187ZM6.72187 11.792H9.90588V10.792H6.72187V11.792ZM10.4059 11.292V7.98H9.40588V11.292H10.4059ZM9.90588 8.48H11.0579V7.48H9.90588V8.48ZM10.5579 7.98V11.292H11.5579V7.98H10.5579Z" fill="#434343"/>
</svg>
