<svg width="27" height="27" viewBox="0 0 27 27" fill="none" xmlns="http://www.w3.org/2000/svg">
<path d="M13.497 1.34161e-06C9.91737 1.34161e-06 6.48435 1.43101 3.95317 3.97822C1.422 6.52543 0 9.9802 0 13.5825C0.000358035 16.817 1.14736 19.9452 3.23475 22.4047C5.32215 24.8642 8.21298 26.4937 11.3875 27V17.5083H7.96022V13.5825H11.3875V10.5883C11.3875 7.18564 13.403 5.30422 16.4863 5.30422C17.4985 5.31847 18.5083 5.40725 19.5076 5.56983V8.91213H17.804C16.1284 8.91213 15.6045 9.9605 15.6045 11.033V13.5825H19.3477L18.7478 17.5083H15.6025V27C18.7787 26.4954 21.6716 24.8668 23.761 22.4072C25.8503 19.9476 26.9989 16.8183 27 13.5825C27 11.7983 26.6507 10.0316 25.972 8.38331C25.2933 6.73501 24.2986 5.23742 23.0447 3.97609C21.7907 2.71476 20.3021 1.7144 18.6639 1.03217C17.0257 0.349945 15.27 -0.000791631 13.497 1.34161e-06Z" fill="#434343"/>
</svg>
