<?xml version="1.0" encoding="utf-8"?>
<!-- Generator: Adobe Illustrator 27.0.0, SVG Export Plug-In . SVG Version: 6.00 Build 0)  -->
<svg version="1.1" id="Layer_1" xmlns="http://www.w3.org/2000/svg" xmlns:xlink="http://www.w3.org/1999/xlink" x="0px" y="0px"
	 viewBox="0 0 21 21" style="enable-background:new 0 0 21 21;" xml:space="preserve">
<style type="text/css">
	.st0{fill:#434343;}
</style>
<path class="st0" d="M15.8,9.9c-0.6,0-1.3,0-1.9,0c-1.6,0-2.8-1.2-2.8-2.8c0-0.4,0-0.8,0-1.2l0-0.6l0-0.6c0-0.4,0-0.8,0-1.2
	c0-1.6,1.2-2.8,2.8-2.8c1.3,0,2.5,0,3.8,0c1.6,0,2.8,1.2,2.8,2.8c0,1.3,0,2.5,0,3.8c0,1.6-1.2,2.8-2.8,2.8l0,0
	C17.1,9.9,16.4,9.9,15.8,9.9z M15.8,2c-0.6,0-1.2,0-1.9,0c-0.8,0-1.3,0.5-1.3,1.3c0,0.4,0,0.8,0,1.2l0,0.7l0,0.6c0,0.4,0,0.8,0,1.2
	c0,0.8,0.5,1.3,1.3,1.3c1.2,0,2.5,0,3.7,0h0c0.8,0,1.3-0.5,1.3-1.3c0-1.2,0-2.5,0-3.7C19,2.6,18.5,2,17.7,2C17.1,2,16.4,2,15.8,2z"
	/>
<path class="st0" d="M5.2,9.9c-0.6,0-1.3,0-1.9,0c-1.5,0-2.7-1.2-2.8-2.8c0-0.4,0-0.8,0-1.2l0-0.6l0-0.7c0-0.4,0-0.9,0-1.3
	c0-1.5,1.2-2.7,2.8-2.8c1.3,0,2.6,0,3.8,0c1.5,0,2.7,1.2,2.8,2.8l0,0c0,1.3,0,2.5,0,3.8c0,1.5-1.2,2.7-2.8,2.8
	C6.4,9.9,5.8,9.9,5.2,9.9z M5.2,2C4.6,2,3.9,2,3.3,2C2.6,2,2,2.6,2,3.3c0,0.4,0,0.8,0,1.2l0,0.7l0,0.6c0,0.4,0,0.8,0,1.2
	c0,0.7,0.5,1.3,1.3,1.3c1.3,0,2.5,0,3.8,0c0.8,0,1.3-0.5,1.3-1.3c0-1.3,0-2.5,0-3.8l0,0C8.3,2.6,7.8,2,7.1,2C6.4,2,5.8,2,5.2,2z"/>
<path class="st0" d="M20.5,15.1c0-0.4,0-0.8,0-1.2c0-1.5-1.2-2.7-2.7-2.7c-1.3,0-2.6,0-3.9,0c-1.5,0-2.7,1.2-2.7,2.7
	c0,1.3,0,2.6,0,3.9c0,1.5,1.2,2.7,2.7,2.7c0.7,0,1.3,0,1.9,0c0.6,0,1.3,0,1.9,0c1.5,0,2.7-1.2,2.7-2.7c0-0.4,0-0.9,0-1.3l0-0.7
	L20.5,15.1z M19,16.4c0,0.4,0,0.8,0,1.3c0,0.7-0.6,1.3-1.3,1.3c-1.3,0-2.5,0-3.8,0c-0.7,0-1.3-0.5-1.3-1.3c0-1.3,0-2.5,0-3.8
	c0-0.7,0.5-1.3,1.3-1.3c0.6,0,1.3,0,1.9,0c0.6,0,1.3,0,1.9,0c0.7,0,1.3,0.5,1.3,1.3c0,0.4,0,0.8,0,1.2l0,0.6L19,16.4z"/>
<path class="st0" d="M5.2,20.5c-0.6,0-1.3,0-1.9,0c-1.5,0-2.7-1.2-2.8-2.8c0-0.4,0-0.9,0-1.3l0-0.7l0-0.6c0-0.4,0-0.8,0-1.2
	c0-1.6,1.2-2.7,2.8-2.8c1.3,0,2.6,0,3.8,0c1.6,0,2.7,1.2,2.8,2.8l-0.1,0l0.1,0c0,1.3,0,2.5,0,3.8l-0.1,0l0.1,0
	c0,1.5-1.2,2.7-2.8,2.8C6.5,20.5,5.8,20.5,5.2,20.5z M5.2,12.6c-0.6,0-1.3,0-1.9,0c-0.7,0-1.3,0.5-1.3,1.3c0,0.4,0,0.8,0,1.2l0,0.7
	l0,0.7c0,0.4,0,0.8,0,1.2C2,18.4,2.6,19,3.3,19c1.3,0,2.5,0,3.8,0c0.7,0,1.3-0.5,1.3-1.3c0-1.3,0-2.5,0-3.8l0,0
	c0-0.7-0.5-1.3-1.3-1.3C6.4,12.6,5.8,12.6,5.2,12.6z"/>
</svg>
