<svg width="23" height="21" viewBox="0 0 23 21" fill="none" xmlns="http://www.w3.org/2000/svg">
<path d="M8.4332 5.49705C8.54684 4.78849 9.08511 4.55638 9.72506 4.44032C9.91046 4.40978 10.0959 4.37313 10.2813 4.34259C10.6521 4.2754 10.7837 3.96388 10.5444 3.67679C9.92841 2.91326 9.91046 2.05811 10.1916 1.17242C10.3829 0.57381 10.8495 0.274507 11.5073 0.268399C12.1652 0.26229 12.6557 0.57381 12.847 1.17853C13.1222 2.052 13.1042 2.90105 12.5002 3.65847C12.249 3.96999 12.3686 4.2754 12.7633 4.34259C12.9128 4.36702 13.0624 4.37924 13.2059 4.41589C13.9774 4.60524 14.3183 4.61135 14.6293 5.49094C15.0659 5.39321 15.5025 5.28937 15.9331 5.19774C16.3099 5.12444 16.4236 4.84346 16.1843 4.53805C15.5982 3.78063 15.5863 2.9377 15.9092 2.08865C16.1305 1.50837 16.6209 1.33123 17.1951 1.34956C17.7453 1.36788 18.1759 1.6061 18.3554 2.14363C18.6424 2.98045 18.6305 3.79896 18.0563 4.53805C17.8111 4.85568 17.9128 5.11833 18.3015 5.19774C18.6066 5.25882 18.9116 5.3138 19.2046 5.39321C19.707 5.52148 20.0121 5.86965 20.0479 6.38274C20.1197 7.41503 20.1556 8.45343 20.1855 9.49183C20.1915 9.6201 20.0778 9.77892 19.9762 9.87665C19.7668 10.0782 19.5276 10.2431 19.2944 10.4203C19.103 10.5669 18.9355 10.4997 18.8996 10.2492C18.8578 9.95605 18.8398 9.66286 18.774 9.37577C18.7501 9.27804 18.6424 9.14366 18.5527 9.12534C17.6018 8.90544 16.6449 8.88711 15.6819 9.11312C15.5025 9.15588 15.4308 9.24139 15.4128 9.41242C15.4008 9.53459 15.353 9.65675 15.365 9.77281C15.4487 10.4936 14.9104 10.6157 14.4379 10.799C14.3721 10.8234 14.2645 10.7807 14.1987 10.744C12.5241 9.75448 10.8076 9.67508 9.10904 10.6096C8.57076 10.9089 8.23584 10.6463 7.83512 10.4508C7.75737 10.4142 7.72747 10.2492 7.70354 10.1393C7.6557 9.88276 7.64374 9.61399 7.58393 9.35745C7.56599 9.26582 7.45833 9.14977 7.3746 9.13144C6.41169 8.89933 5.43682 8.89933 4.47391 9.13144C4.39018 9.14977 4.28252 9.26582 4.26458 9.35745C4.19879 9.65675 4.18085 9.96216 4.12104 10.2615C4.06721 10.5363 3.95358 10.573 3.73827 10.4142C3.60071 10.3164 3.47511 10.1821 3.32559 10.1088C2.87703 9.88886 2.78732 9.51626 2.81722 9.05814C2.87703 8.19688 2.90095 7.32951 2.96674 6.46825C3.00861 5.86965 3.34353 5.49705 3.91769 5.36877C4.18085 5.30769 4.444 5.25882 4.70716 5.20996C5.11385 5.13055 5.21553 4.8679 4.96433 4.53805C4.37821 3.76231 4.37223 2.91937 4.71314 2.05811C4.92247 1.52669 5.38897 1.34956 5.93322 1.35566C6.46552 1.36177 6.9081 1.55724 7.11144 2.08254C7.44039 2.9377 7.43441 3.76842 6.85427 4.53805C6.59709 4.88011 6.71671 5.14277 7.13537 5.22217C7.56001 5.27715 7.97268 5.3871 8.4332 5.49705Z" fill="#434343"/>
<path d="M7.07553 17.9948C7.38055 18.3796 7.66763 18.74 7.97863 19.1248C7.76332 19.2164 7.54802 19.3386 7.32074 19.3996C7.1174 19.4546 7.05759 19.5768 7.03367 19.7661C7.00974 20.0105 6.98582 20.2548 6.93199 20.4869C6.90807 20.5724 6.79443 20.7007 6.72266 20.7007C6.19037 20.719 5.6521 20.719 5.11383 20.7007C5.04206 20.7007 4.94038 20.5785 4.92244 20.4991C4.86861 20.2426 4.85067 19.9738 4.8088 19.7173C4.76096 19.4119 3.86982 19.0332 3.6246 19.2103C3.37341 19.3996 3.1282 19.589 2.85906 19.7906C2.32079 19.4546 1.89017 18.9965 1.52534 18.4712C1.48945 18.4223 1.51338 18.3002 1.55524 18.2391C1.6928 18.0253 1.83634 17.8176 2.0038 17.6283C2.14734 17.4633 2.16529 17.3167 2.03969 17.1457C2.01577 17.1152 1.99782 17.0724 1.99184 17.0358C1.90811 16.4433 1.5074 16.3028 0.999028 16.2967C0.873431 16.2967 0.741853 16.26 0.592333 16.2356C0.478698 15.6186 0.466736 15.0078 0.574391 14.3909C0.586352 14.3237 0.670084 14.2626 0.729892 14.2199C0.765777 14.1954 0.825585 14.1832 0.873431 14.1893C1.60309 14.2687 1.93802 13.8412 2.0995 13.1937C2.11744 13.1143 2.10548 12.9982 2.05763 12.9249C1.93203 12.7295 1.80644 12.5279 1.64496 12.363C1.44161 12.1553 1.47151 11.9904 1.65692 11.801C2.03371 11.4162 2.4105 11.0253 2.78729 10.6343C3.09231 10.8664 3.34351 11.0436 3.58274 11.239C3.7203 11.349 3.84589 11.4101 4.00738 11.2879C4.0612 11.2452 4.12699 11.2085 4.19278 11.1963C4.749 11.123 4.85067 10.7321 4.88655 10.2495C4.92244 9.69367 4.83273 9.77918 5.41885 9.7181C5.80162 9.68145 6.19635 9.73032 6.57912 9.73642C6.81836 9.74253 6.92601 9.85248 6.94395 10.1029C6.96788 10.3961 7.02768 10.6832 7.06955 10.9703C7.36859 11.0925 7.66165 11.2146 7.96667 11.3429C7.65567 11.7338 7.36261 12.1003 7.05161 12.4912C6.32195 12.1858 5.56239 12.1675 4.8088 12.479C4.24063 12.7172 3.79207 13.1082 3.45714 13.6396C2.82318 14.6413 2.85308 15.9913 3.53489 16.9441C4.36622 18.0986 5.50856 18.4345 7.07553 17.9948Z" fill="#434343"/>
<path d="M15.9629 12.4855C15.6699 12.1129 15.3768 11.7464 15.0658 11.3555C15.2811 11.2639 15.4845 11.1662 15.6998 11.0929C15.8971 11.0318 15.9928 10.9218 16.0048 10.708C16.0227 10.4637 16.0526 10.2194 16.1065 9.98728C16.1304 9.90176 16.244 9.77349 16.3158 9.76738C16.8421 9.74906 17.3684 9.75516 17.8947 9.77349C17.9725 9.7796 18.0502 9.90787 18.116 9.98728C18.1399 10.0117 18.1399 10.0667 18.1459 10.1033C18.1997 10.4026 18.1639 10.763 18.3253 10.9768C18.4808 11.1784 18.8337 11.2272 19.1028 11.3189C19.1866 11.3494 19.3182 11.3311 19.3899 11.2761C19.6112 11.1234 19.8146 10.9402 20.0418 10.7936C20.1136 10.7447 20.2811 10.7386 20.3349 10.7875C20.7236 11.1601 21.1064 11.551 21.4712 11.948C21.5191 11.9969 21.4832 12.1374 21.4772 12.229C21.4712 12.2656 21.4294 12.2962 21.4055 12.3267C20.8552 13.0658 20.8492 13.0658 21.232 13.9149C21.2619 13.9882 21.3636 14.0554 21.4473 14.0737C21.6686 14.1226 21.9019 14.1531 22.1291 14.1714C22.3564 14.1897 22.4999 14.263 22.4999 14.5257C22.494 15.0815 22.4999 15.6374 22.4999 16.2238C22.1411 16.2726 21.8301 16.3276 21.5131 16.3643C21.3456 16.3826 21.232 16.4437 21.2021 16.6269C21.1961 16.6758 21.1782 16.7308 21.1543 16.7674C20.8074 17.25 20.9808 17.6409 21.3337 18.0318C21.6267 18.3556 21.6148 18.3922 21.3217 18.722C20.9808 19.1008 20.61 19.4489 20.2392 19.8215C19.9521 19.6016 19.7129 19.4184 19.4737 19.2412C19.4258 19.2046 19.3839 19.1618 19.3301 19.1313C19.1627 19.0336 18.2775 19.4673 18.2416 19.6688C18.2057 19.8887 18.1698 20.1086 18.1519 20.3346C18.1399 20.5851 18.0562 20.7378 17.7811 20.7317C17.2966 20.7194 16.8062 20.7255 16.3218 20.7011C16.244 20.695 16.1304 20.5728 16.1065 20.4873C16.0466 20.2308 16.0466 19.962 15.9809 19.7055C15.951 19.5955 15.8493 19.4734 15.7476 19.4184C15.5323 19.2962 15.2931 19.2168 15.0598 19.1191C15.3708 18.7282 15.6639 18.3617 15.9629 17.9891C17.6375 18.4105 18.7739 18.0563 19.5574 16.8529C20.2093 15.8512 20.1794 14.4952 19.4737 13.4934C18.6842 12.3817 17.506 12.0396 15.9629 12.4855Z" fill="#434343"/>
<path d="M15.8854 15.2462C15.8854 17.7078 13.9118 19.7113 11.5075 19.7052C9.09124 19.6991 7.15346 17.7017 7.14747 15.2217C7.14149 12.7907 9.1032 10.7688 11.4656 10.7688C13.9417 10.7749 15.8914 12.7479 15.8854 15.2462ZM14.8209 15.2462C14.8268 13.3832 13.3376 11.8561 11.5194 11.8622C9.71324 11.8622 8.22402 13.3709 8.21804 15.2156C8.21206 17.0847 9.68334 18.6118 11.5015 18.6179C13.3257 18.624 14.8149 17.1092 14.8209 15.2462Z" fill="#434343"/>
<path d="M6.49513 13.9696C6.32766 14.7697 6.29776 15.5638 6.46522 16.364C6.47719 16.4251 6.35757 16.5656 6.27982 16.59C5.5681 16.8038 4.79658 16.3457 4.59921 15.6127C4.39586 14.843 4.83844 14.0551 5.59203 13.8657C5.90303 13.7924 6.20207 13.8108 6.49513 13.9696Z" fill="#434343"/>
<path d="M16.5791 16.5167C16.615 16.0647 16.6748 15.6432 16.6748 15.2156C16.6748 14.8003 16.615 14.391 16.5791 13.9634C17.1114 13.6275 17.8351 13.9207 18.1521 14.2994C18.5887 14.8186 18.6126 15.5516 18.1999 16.0952C17.8111 16.6144 17.1353 16.7854 16.5791 16.5167Z" fill="#434343"/>
<path d="M11.5793 15.8692C11.1187 15.8753 10.8496 15.5149 10.9094 15.0874C10.9333 14.9469 10.9094 14.7758 10.8496 14.6414C10.6223 14.1467 10.3652 13.6641 10.1439 13.1633C10.0601 12.9678 9.89866 12.699 10.1379 12.5402C10.1977 12.5036 10.5147 12.7479 10.6283 12.925C10.9154 13.3832 11.1546 13.8779 11.4118 14.3605C11.5852 14.6842 11.7587 14.7331 12.0876 14.562C12.3986 14.4032 12.7096 14.2444 13.0386 14.1284C13.1642 14.0856 13.3316 14.1589 13.4812 14.1772C13.4154 14.3116 13.3795 14.4949 13.2718 14.5743C12.9848 14.788 12.6618 14.9469 12.3628 15.1484C12.2551 15.2217 12.1594 15.3317 12.1056 15.4477C11.986 15.7165 11.8006 15.8448 11.5793 15.8692Z" fill="#434343"/>
</svg>
