<svg width="27" height="27" viewBox="0 0 27 27" fill="none" xmlns="http://www.w3.org/2000/svg">
<g clip-path="url(#clip0_112_8092)">
<circle cx="13.3999" cy="13.5" r="13.5" fill="#434343"/>
<g clip-path="url(#clip1_112_8092)">
<path d="M18.4 6H8.39981C7.7368 6 7.10093 6.26338 6.63211 6.73221C6.16329 7.20103 5.8999 7.83689 5.8999 8.49991V18.5001C5.89983 18.8284 5.96445 19.1535 6.09005 19.4568C6.21566 19.7602 6.3998 20.0358 6.63195 20.268C6.8641 20.5001 7.13972 20.6842 7.44306 20.8098C7.74639 20.9355 8.0715 21.0001 8.39981 21H18.4C18.7283 21.0001 19.0534 20.9355 19.3568 20.8098C19.6601 20.6842 19.9357 20.5001 20.1679 20.268C20.4 20.0358 20.5841 19.7602 20.7098 19.4568C20.8354 19.1535 20.9 18.8284 20.8999 18.5001V8.49991C20.8999 7.83689 20.6365 7.20103 20.1677 6.73221C19.6989 6.26338 19.063 6 18.4 6V6ZM19.6501 18.5001C19.6502 18.6642 19.6179 18.8268 19.5551 18.9785C19.4923 19.1301 19.4002 19.2679 19.2842 19.384C19.1681 19.5001 19.0303 19.5921 18.8786 19.6549C18.727 19.7177 18.5644 19.75 18.4003 19.7499H8.39981C8.23566 19.75 8.07311 19.7177 7.92144 19.6549C7.76978 19.5921 7.63197 19.5001 7.5159 19.384C7.39983 19.2679 7.30777 19.1301 7.24499 18.9785C7.1822 18.8268 7.14992 18.6642 7.14999 18.5001V8.49991C7.14992 8.33576 7.1822 8.17321 7.24499 8.02154C7.30777 7.86987 7.39983 7.73207 7.5159 7.616C7.63197 7.49993 7.76978 7.40787 7.92144 7.34508C8.07311 7.2823 8.23566 7.25002 8.39981 7.25009H18.4C18.5641 7.25002 18.7267 7.2823 18.8784 7.34508C19.03 7.40787 19.1678 7.49993 19.2839 7.616C19.4 7.73207 19.492 7.86987 19.5548 8.02154C19.6176 8.17321 19.6499 8.33576 19.6498 8.49991L19.6501 18.5001Z" fill="white"/>
<path d="M13.3999 9.75C12.5323 9.75006 11.6916 10.0509 11.021 10.6014C10.3504 11.1518 9.89136 11.9177 9.72216 12.7687C9.55296 13.6196 9.68404 14.5028 10.0931 15.268C10.5021 16.0331 11.1637 16.6327 11.9653 16.9646C12.7669 17.2966 13.6587 17.3404 14.4889 17.0885C15.3191 16.8366 16.0363 16.3046 16.5183 15.5832C17.0002 14.8618 17.2172 13.9956 17.1321 13.1322C17.047 12.2688 16.6652 11.4617 16.0517 10.8482C15.7034 10.5 15.29 10.2238 14.835 10.0354C14.38 9.84693 13.8924 9.74996 13.3999 9.75ZM13.3999 15.9999C12.8215 15.9998 12.2611 15.7992 11.814 15.4323C11.367 15.0653 11.061 14.5547 10.9483 13.9874C10.8355 13.4202 10.9229 12.8314 11.1956 12.3213C11.4683 11.8113 11.9094 11.4116 12.4438 11.1903C12.9781 10.969 13.5727 10.9399 14.1261 11.1078C14.6796 11.2758 15.1576 11.6304 15.4789 12.1113C15.8002 12.5922 15.9448 13.1697 15.888 13.7453C15.8313 14.3208 15.5767 14.8589 15.1677 15.2679C14.9356 15.5 14.66 15.6841 14.3566 15.8097C14.0533 15.9353 13.7282 16 13.3999 15.9999Z" fill="white"/>
<path d="M18.3999 9.43741C18.3999 9.62283 18.3449 9.80409 18.2419 9.95826C18.1389 10.1124 17.9925 10.2326 17.8212 10.3035C17.6499 10.3745 17.4614 10.3931 17.2795 10.3569C17.0976 10.3207 16.9306 10.2314 16.7995 10.1003C16.6684 9.96921 16.5791 9.80217 16.5429 9.62031C16.5067 9.43845 16.5253 9.24995 16.5963 9.07865C16.6672 8.90734 16.7874 8.76092 16.9416 8.65791C17.0957 8.5549 17.277 8.49991 17.4624 8.49991C17.711 8.49991 17.9495 8.59868 18.1253 8.7745C18.3011 8.95031 18.3999 9.18877 18.3999 9.43741Z" fill="white"/>
</g>
</g>
<defs>
<clipPath id="clip0_112_8092">
<rect width="27" height="27" fill="white"/>
</clipPath>
<clipPath id="clip1_112_8092">
<rect width="15" height="15" fill="white" transform="translate(5.8999 6)"/>
</clipPath>
</defs>
</svg>
