<svg width="40" height="40" viewBox="0 0 40 40" fill="none" xmlns="http://www.w3.org/2000/svg">
<g filter="url(#filter0_d_112_8141)">
<rect x="6" y="6" width="28" height="28" rx="14" fill="white" shape-rendering="crispEdges"/>
<path d="M17.1925 17.8996V24.5357H14.9827V17.8996H17.1925ZM17.3331 15.8504C17.3376 16.1763 17.2238 16.4487 16.9916 16.6674C16.764 16.8862 16.4626 16.9955 16.0876 16.9955H16.0742C15.7081 16.9955 15.4135 16.8862 15.1903 16.6674C14.9671 16.4487 14.8555 16.1763 14.8555 15.8504C14.8555 15.5201 14.9693 15.2478 15.197 15.0335C15.4291 14.8147 15.7305 14.7054 16.101 14.7054C16.4715 14.7054 16.7684 14.8147 16.9916 15.0335C17.2148 15.2478 17.3287 15.5201 17.3331 15.8504ZM25.1412 20.7321V24.5357H22.9381V20.9866C22.9381 20.5179 22.8465 20.1518 22.6635 19.8884C22.4849 19.6205 22.2037 19.4866 21.8198 19.4866C21.5385 19.4866 21.3019 19.5647 21.1099 19.721C20.9224 19.8728 20.7818 20.0625 20.6881 20.2902C20.639 20.4241 20.6144 20.6049 20.6144 20.8326V24.5357H18.4113C18.4202 22.7545 18.4247 21.3103 18.4247 20.2031C18.4247 19.096 18.4224 18.4353 18.418 18.221L18.4113 17.8996H20.6144V18.8638H20.601C20.6903 18.721 20.7818 18.596 20.8756 18.4888C20.9693 18.3817 21.0943 18.2656 21.2506 18.1406C21.4113 18.0156 21.6055 17.9196 21.8331 17.8527C22.0653 17.7812 22.322 17.7455 22.6032 17.7455C23.3666 17.7455 23.9805 18 24.4448 18.5089C24.909 19.0134 25.1412 19.7545 25.1412 20.7321Z" fill="#5D5FEF"/>
</g>
<defs>
<filter id="filter0_d_112_8141" x="0" y="0" width="40" height="40" filterUnits="userSpaceOnUse" color-interpolation-filters="sRGB">
<feFlood flood-opacity="0" result="BackgroundImageFix"/>
<feColorMatrix in="SourceAlpha" type="matrix" values="0 0 0 0 0 0 0 0 0 0 0 0 0 0 0 0 0 0 127 0" result="hardAlpha"/>
<feOffset/>
<feGaussianBlur stdDeviation="3"/>
<feComposite in2="hardAlpha" operator="out"/>
<feColorMatrix type="matrix" values="0 0 0 0 0.360784 0 0 0 0 0.392157 0 0 0 0 0.407843 0 0 0 0.15 0"/>
<feBlend mode="normal" in2="BackgroundImageFix" result="effect1_dropShadow_112_8141"/>
<feBlend mode="normal" in="SourceGraphic" in2="effect1_dropShadow_112_8141" result="shape"/>
</filter>
</defs>
</svg>
