<svg width="21" height="25" viewBox="0 0 21 25" fill="none" xmlns="http://www.w3.org/2000/svg">
<path d="M16.9333 0C17.7992 0.348243 18.5427 0.828253 18.8722 1.76004C18.9663 2.03298 19.051 2.33417 19.051 2.62594C19.0698 4.17891 19.051 5.73188 19.051 7.28486C19.051 7.36015 19.0416 7.43545 19.0227 7.59545C18.3921 7.05897 17.818 6.56955 17.2533 6.07071C17.1686 5.99542 17.178 5.80718 17.1686 5.67541C17.1592 4.78128 17.1686 3.88714 17.1592 2.993C17.1592 2.2024 16.8298 1.88239 16.0392 1.88239C11.8508 1.88239 7.6625 1.88239 3.47418 1.88239C2.74946 1.88239 2.3918 2.22122 2.3918 2.92712C2.3918 8.96019 2.3918 15.0027 2.3918 21.0357C2.3918 21.9016 2.69299 22.2028 3.54006 22.2028C7.72839 22.2028 11.9167 22.2028 16.105 22.2028C16.8109 22.2028 17.1592 21.8546 17.1686 21.1298C17.1686 20.2639 17.178 19.4075 17.1592 18.5416C17.1498 18.2404 17.2156 18.0239 17.4698 17.8168C17.9874 17.4121 18.4674 16.9698 19.0133 16.4898C19.0322 16.6686 19.051 16.7815 19.051 16.8945C19.051 18.3251 19.051 19.7463 19.051 21.1769C19.051 22.5981 18.411 23.5111 17.0839 23.9911C17.0274 24.0099 16.9803 24.0476 16.9333 24.0852C12.1614 24.0852 7.38956 24.0852 2.6271 24.0852C2.58004 24.057 2.53298 24.0099 2.47651 23.9911C1.14943 23.5017 0.5 22.5793 0.5 21.1769C0.5 20.7063 0.5 20.2357 0.5 19.7651C0.5 14.0897 0.5 8.40488 0.518824 2.72006C0.518824 2.38123 0.603532 2.03298 0.716475 1.72239C1.02707 0.800016 1.78003 0.348243 2.6271 0C7.38956 0 12.1614 0 16.9333 0Z" fill="#434343"/>
<path d="M12.5566 14.8709C11.879 14.8709 11.2578 14.8709 10.6272 14.8709C9.49776 14.8709 8.36832 14.8803 7.23889 14.8709C6.3824 14.8615 6.05298 14.5321 6.05298 13.6756C6.05298 12.5932 6.05298 11.5109 6.06239 10.4285C6.06239 9.56258 6.3824 9.23316 7.2483 9.23316C8.82951 9.22375 10.4107 9.23316 12.0013 9.22375C12.1708 9.22375 12.3402 9.22375 12.5661 9.22375C12.5661 8.41432 12.5661 7.65195 12.5661 6.88958C12.5661 6.55075 12.5943 6.21192 12.9331 6.0425C13.3002 5.86367 13.5731 6.05191 13.8555 6.28721C15.9261 8.09431 18.0156 9.892 20.0956 11.6897C20.2274 11.8026 20.3403 11.9156 20.5003 12.0567C19.4933 12.9321 18.5144 13.7885 17.5356 14.6356C16.2932 15.7086 15.0508 16.7816 13.8178 17.8639C13.5825 18.071 13.3002 18.2781 13.0367 18.071C12.8202 17.9016 12.6131 17.591 12.5943 17.3275C12.519 16.518 12.5566 15.718 12.5566 14.8709Z" fill="#434343"/>
</svg>
