<svg width="19" height="20" viewBox="0 0 19 20" fill="none" xmlns="http://www.w3.org/2000/svg">
<path d="M2.0366 0C1.62995 0.00290937 1.24078 0.167732 0.953234 0.458827C0.665687 0.749922 0.502874 1.1439 0.5 1.55556V18.4444C0.502874 18.8561 0.665687 19.2501 0.953234 19.5412C1.24078 19.8323 1.62995 19.9971 2.0366 20H14.7684C15.175 19.997 15.5641 19.8321 15.8516 19.5411C16.1392 19.25 16.302 18.8561 16.305 18.4444V13.2984L18.4523 4.95794C18.653 4.17619 18.203 3.35437 17.43 3.13849L16.305 2.82103V1.55516C16.302 1.14357 16.1391 0.749695 15.8516 0.458686C15.5641 0.167676 15.175 0.00290814 14.7684 0H2.0366ZM2.0366 1.33333H14.7684C14.7977 1.33134 14.8271 1.33573 14.8547 1.34619C14.8822 1.35665 14.9072 1.37296 14.928 1.394C14.9488 1.41505 14.9649 1.44035 14.9752 1.46822C14.9855 1.49608 14.9899 1.52586 14.9879 1.55556V18.4444C14.9899 18.4741 14.9855 18.5039 14.9752 18.5318C14.9649 18.5596 14.9488 18.585 14.928 18.606C14.9072 18.627 14.8822 18.6433 14.8547 18.6538C14.8271 18.6643 14.7977 18.6687 14.7684 18.6667H2.0366C2.00726 18.6687 1.97784 18.6643 1.95032 18.6538C1.9228 18.6433 1.8978 18.627 1.87701 18.606C1.85622 18.585 1.84012 18.5596 1.82978 18.5318C1.81945 18.5039 1.81512 18.4741 1.81708 18.4444V1.55556C1.81512 1.52586 1.81945 1.49608 1.82978 1.46822C1.84012 1.44035 1.85622 1.41505 1.87701 1.394C1.8978 1.37296 1.9228 1.35665 1.95032 1.34619C1.97784 1.33573 2.00726 1.33134 2.0366 1.33333V1.33333ZM3.50459 2.22222C3.34205 2.23936 3.19162 2.31711 3.08257 2.44034C2.97353 2.56356 2.91367 2.72345 2.91465 2.88889V5.55556C2.91465 5.6431 2.93168 5.72979 2.96478 5.81068C2.99787 5.89156 3.04638 5.96505 3.10753 6.02696C3.16868 6.08887 3.24128 6.13797 3.32118 6.17148C3.40108 6.20498 3.48671 6.22222 3.57319 6.22222H13.2318C13.3183 6.22222 13.4039 6.20498 13.4838 6.17148C13.5637 6.13797 13.6363 6.08887 13.6975 6.02696C13.7586 5.96505 13.8071 5.89156 13.8402 5.81068C13.8733 5.72979 13.8903 5.6431 13.8903 5.55556V2.88889C13.8903 2.80134 13.8733 2.71465 13.8402 2.63377C13.8071 2.55288 13.7586 2.47939 13.6975 2.41748C13.6363 2.35558 13.5637 2.30647 13.4838 2.27297C13.4039 2.23947 13.3183 2.22222 13.2318 2.22222H3.57319C3.55034 2.22103 3.52744 2.22103 3.50459 2.22222V2.22222ZM4.23173 3.55556H12.5733V4.88889H4.23173V3.55556ZM16.305 4.20833L17.0733 4.42381H17.0799C17.1532 4.44405 17.2019 4.5246 17.176 4.625L16.305 8.02103V4.20833ZM3.50459 9.77778C3.32994 9.78699 3.16605 9.86606 3.04898 9.99759C2.93191 10.1291 2.87125 10.3024 2.88035 10.4792C2.88945 10.656 2.96755 10.8219 3.09749 10.9404C3.22742 11.0589 3.39854 11.1203 3.57319 11.1111H7.30492C7.47958 11.1111 7.64708 11.0409 7.77058 10.9158C7.89408 10.7908 7.96346 10.6213 7.96346 10.4444C7.96346 10.2676 7.89408 10.0981 7.77058 9.97304C7.64708 9.84802 7.47958 9.77778 7.30492 9.77778H3.57319C3.55034 9.77659 3.52744 9.77659 3.50459 9.77778V9.77778ZM9.43146 9.77778C9.34498 9.78234 9.26023 9.8041 9.18206 9.84181C9.10388 9.87953 9.03382 9.93246 8.97585 9.99759C8.91788 10.0627 8.87316 10.1388 8.84422 10.2214C8.81529 10.304 8.80272 10.3916 8.80722 10.4792C8.81172 10.5667 8.83322 10.6525 8.87047 10.7316C8.90773 10.8108 8.96002 10.8817 9.02435 10.9404C9.08869 10.9991 9.16381 11.0444 9.24544 11.0737C9.32706 11.1029 9.41358 11.1157 9.50006 11.1111H13.2318C13.4064 11.1111 13.574 11.0409 13.6975 10.9158C13.821 10.7908 13.8903 10.6213 13.8903 10.4444C13.8903 10.2676 13.821 10.0981 13.6975 9.97304C13.574 9.84802 13.4064 9.77778 13.2318 9.77778H9.50006C9.47721 9.77659 9.45431 9.77659 9.43146 9.77778ZM3.50459 12C3.32994 12.0092 3.16605 12.0883 3.04898 12.2198C2.93191 12.3514 2.87125 12.5246 2.88035 12.7014C2.88945 12.8782 2.96755 13.0441 3.09749 13.1626C3.22742 13.2811 3.39854 13.3425 3.57319 13.3333H7.30492C7.47958 13.3333 7.64708 13.2631 7.77058 13.1381C7.89408 13.013 7.96346 12.8435 7.96346 12.6667C7.96346 12.4899 7.89408 12.3203 7.77058 12.1953C7.64708 12.0702 7.47958 12 7.30492 12H3.57319C3.55034 11.9988 3.52744 11.9988 3.50459 12V12ZM9.43146 12C9.34498 12.0046 9.26023 12.0263 9.18206 12.064C9.10388 12.1018 9.03382 12.1547 8.97585 12.2198C8.91788 12.2849 8.87316 12.361 8.84422 12.4436C8.81529 12.5263 8.80272 12.6138 8.80722 12.7014C8.81172 12.7889 8.83322 12.8747 8.87047 12.9539C8.90773 13.033 8.96002 13.1039 9.02435 13.1626C9.08869 13.2213 9.16381 13.2666 9.24544 13.2959C9.32706 13.3252 9.41358 13.3379 9.50006 13.3333H13.2318C13.4064 13.3333 13.574 13.2631 13.6975 13.1381C13.821 13.013 13.8903 12.8435 13.8903 12.6667C13.8903 12.4899 13.821 12.3203 13.6975 12.1953C13.574 12.0702 13.4064 12 13.2318 12H9.50006C9.47721 11.9988 9.45431 11.9988 9.43146 12ZM3.50459 14.2222C3.41811 14.2268 3.33337 14.2485 3.25519 14.2863C3.17702 14.324 3.10695 14.3769 3.04898 14.442C2.99101 14.5072 2.94629 14.5832 2.91735 14.6658C2.88842 14.7485 2.87585 14.8361 2.88035 14.9236C2.88486 15.0112 2.90635 15.097 2.94361 15.1761C2.98086 15.2552 3.03315 15.3262 3.09749 15.3848C3.16182 15.4435 3.23695 15.4888 3.31857 15.5181C3.40019 15.5474 3.48671 15.5601 3.57319 15.5556H13.2318C13.4064 15.5556 13.574 15.4853 13.6975 15.3603C13.821 15.2353 13.8903 15.0657 13.8903 14.8889C13.8903 14.7121 13.821 14.5425 13.6975 14.4175C13.574 14.2925 13.4064 14.2222 13.2318 14.2222H3.57319C3.55034 14.221 3.52744 14.221 3.50459 14.2222V14.2222ZM3.50459 16.4444C3.32994 16.4537 3.16605 16.5327 3.04898 16.6643C2.93191 16.7958 2.87125 16.969 2.88035 17.1458C2.88945 17.3226 2.96755 17.4886 3.09749 17.6071C3.22742 17.7256 3.39854 17.787 3.57319 17.7778H13.2318C13.4064 17.7778 13.574 17.7075 13.6975 17.5825C13.821 17.4575 13.8903 17.2879 13.8903 17.1111C13.8903 16.9343 13.821 16.7647 13.6975 16.6397C13.574 16.5147 13.4064 16.4444 13.2318 16.4444H3.57319C3.55034 16.4433 3.52744 16.4433 3.50459 16.4444V16.4444Z" fill="#434343"/>
</svg>
