<svg width="40" height="40" viewBox="0 0 40 40" fill="none" xmlns="http://www.w3.org/2000/svg">
<g filter="url(#filter0_d_112_8140)">
<rect x="6" y="6" width="28" height="28" rx="14" fill="white" shape-rendering="crispEdges"/>
<path d="M25.2759 16.4464C24.9768 16.8839 24.6152 17.2567 24.1911 17.5647C24.1956 17.6272 24.1978 17.721 24.1978 17.846C24.1978 18.4263 24.113 19.0067 23.9434 19.5871C23.7737 20.1629 23.5148 20.7165 23.1666 21.2478C22.8228 21.779 22.4121 22.25 21.9344 22.6607C21.4568 23.067 20.8809 23.3929 20.2068 23.6384C19.5326 23.8795 18.8117 24 18.0438 24C16.834 24 15.7268 23.6763 14.7224 23.029C14.8786 23.0469 15.0527 23.0558 15.2447 23.0558C16.2492 23.0558 17.1443 22.7478 17.93 22.1317C17.4612 22.1228 17.0416 21.9799 16.671 21.7031C16.3005 21.4219 16.046 21.0647 15.9076 20.6317C16.055 20.654 16.1911 20.6652 16.3161 20.6652C16.5081 20.6652 16.6978 20.6406 16.8853 20.5915C16.3853 20.4888 15.9701 20.2411 15.6398 19.8482C15.3139 19.4509 15.1509 18.9911 15.1509 18.4687V18.442C15.4545 18.6116 15.7804 18.7031 16.1286 18.7165C15.834 18.5201 15.5996 18.2634 15.4255 17.9464C15.2514 17.6295 15.1643 17.2857 15.1643 16.9152C15.1643 16.5223 15.2626 16.1585 15.459 15.8237C15.9992 16.4888 16.6554 17.0223 17.4277 17.4241C18.2045 17.8214 19.0349 18.0424 19.9188 18.0871C19.8831 17.9174 19.8652 17.7522 19.8652 17.5915C19.8652 16.9933 20.0751 16.4844 20.4947 16.0647C20.9188 15.6406 21.43 15.4286 22.0282 15.4286C22.6532 15.4286 23.18 15.6562 23.6085 16.1116C24.0951 16.0179 24.5527 15.8437 24.9813 15.5893C24.8161 16.1027 24.4992 16.5 24.0304 16.7812C24.4456 16.7366 24.8608 16.625 25.2759 16.4464Z" fill="#5D5FEF"/>
</g>
<defs>
<filter id="filter0_d_112_8140" x="0" y="0" width="40" height="40" filterUnits="userSpaceOnUse" color-interpolation-filters="sRGB">
<feFlood flood-opacity="0" result="BackgroundImageFix"/>
<feColorMatrix in="SourceAlpha" type="matrix" values="0 0 0 0 0 0 0 0 0 0 0 0 0 0 0 0 0 0 127 0" result="hardAlpha"/>
<feOffset/>
<feGaussianBlur stdDeviation="3"/>
<feComposite in2="hardAlpha" operator="out"/>
<feColorMatrix type="matrix" values="0 0 0 0 0.360784 0 0 0 0 0.392157 0 0 0 0 0.407843 0 0 0 0.15 0"/>
<feBlend mode="normal" in2="BackgroundImageFix" result="effect1_dropShadow_112_8140"/>
<feBlend mode="normal" in="SourceGraphic" in2="effect1_dropShadow_112_8140" result="shape"/>
</filter>
</defs> 
</svg>
 