<svg width="22" height="20" viewBox="0 0 22 20" fill="none" xmlns="http://www.w3.org/2000/svg">
<path fill-rule="evenodd" clip-rule="evenodd" d="M11.0127 12.5667C13.8384 12.5667 16.1409 9.80769 16.1409 6.41282C16.1409 3.01795 13.8384 0.258972 11.0127 0.258972C8.18709 0.258972 5.88452 3.01795 5.88452 6.41282C5.88452 9.80769 8.19221 12.5667 11.0127 12.5667ZM11.0127 1.79743C12.9973 1.79743 14.6025 3.84872 14.6025 6.41282C14.6025 8.97692 12.9973 11.0282 11.0127 11.0282C9.02811 11.0282 7.42298 8.97692 7.42298 6.41282C7.42298 3.84872 9.02811 1.79743 11.0127 1.79743Z" fill="#5D5FEF"/>
<path fill-rule="evenodd" clip-rule="evenodd" d="M15.7051 12.0539C15.2803 12.0114 14.9015 12.3213 14.859 12.7462C14.8165 13.171 15.1264 13.5498 15.5513 13.5923C17.9369 13.8726 19.7852 15.8114 19.9513 18.2077H2.07436C2.25614 15.8183 4.0964 13.888 6.47436 13.5923C6.89919 13.5498 7.20915 13.171 7.16667 12.7462C7.12418 12.3213 6.74535 12.0114 6.32051 12.0539C6.2641 12.0539 0.5 12.7103 0.5 18.9718C0.5 19.3966 0.844396 19.741 1.26923 19.741H20.7564C21.1812 19.741 21.5256 19.3966 21.5256 18.9718C21.5256 12.7103 15.7615 12.0539 15.7051 12.0539Z" fill="#5D5FEF"/>
</svg>
